# File created by Blade
# Date/Time:  Tue Sep 30 19:36:50 2014
#---------------------------------------------------------
:version 1.10
:name HOM
:units
  mass 1.0
  length 1.000000
  angle deg
:documentation
     Acclaim Skeleton File
:root
   axis xyz
   order TX TY TZ RX RY RZ
   position 0.000000 0.000000 0.000000
   orientation 0 0 0
:bonedata
   begin
      id 1
      name Spine_dum
      direction 0.000000 1.000000 0.000000
      length 3.241213
      axis 0.0 0.0 0.0 xyz
   end
   begin
      id 2
      name LeftUpLeg_dum
      direction 1.000000 0.000000 0.000000
      length 3.434019
      axis 0.0 0.0 0.0 xyz
   end
   begin
      id 3
      name RightUpLeg_dum
      direction -1.000000 0.000000 0.000000
      length 3.434019
      axis 0.0 0.0 0.0 xyz
   end
   begin
      id 4
      name Spine
      direction 0.000000 1.000000 0.000000
      length 0.000000
      axis 0.0 0.0 0.0 xyz
      dof rx ry rz
   end
   begin
      id 5
      name Spine_dum1
      direction 0.000000 1.000000 0.000000
      length 18.382958
      axis 0.0 0.0 0.0 xyz
   end
   begin
      id 6
      name Spine_dum2
      direction 0.000000 1.000000 0.000000
      length 12.828261
      axis 0.0 0.0 0.0 xyz
   end
   begin
      id 7
      name Spine_dum3
      direction 0.000000 1.000000 0.000000
      length 12.828261
      axis 0.0 0.0 0.0 xyz
   end
   begin
      id 8
      name Head
      direction 0.000000 1.000000 0.000000
      length 4.527550
      axis 0.0 0.0 0.0 xyz
      dof rx ry rz
   end
   begin
      id 9
      name LeftShoulder
      direction 1.000000 0.000000 0.000000
      length 7.748055
      axis 0.0 0.0 -90.0 xyz
      dof rx ry rz
   end
   begin
      id 10
      name LeftArm
      direction 1.000000 0.000000 0.000000
      length 10.635614
      axis 0.0 0.0 -90.0 xyz
      dof rx ry rz
   end
   begin
      id 11
      name LeftForeArm
      direction 1.000000 0.000000 0.000000
      length 8.346755
      axis 0.0 0.0 -90.0 xyz
      dof ry rz rx
   end
   begin
      id 12
      name LeftHand
      direction 0.000000 0.000000 0.000000
      length 0.000000
      axis 0.0 0.0 -90.0 xyz
      dof rx ry rz
   end
   begin
      id 13
      name LeftHand_dum1
      direction 0.000000 0.000000 0.000000
      length 0.000000
      axis 0.0 0.0 -90.0 xyz
   end
   begin
      id 14
      name LeftHand_dum2
      direction 1.000000 0.000000 0.000000
      length 3.937000
      axis 0.0 0.0 -90.0 xyz
   end
   begin
      id 15
      name LeftHandThumb1
      direction 0.000000 0.000000 1.000000
      length 3.937000
      axis 0.0 0.0 -90.0 xyz
      dof rx rz ry
   end
   begin
      id 16
      name RightShoulder
      direction -1.000000 0.000000 0.000000
      length 7.748055
      axis 0.0 0.0 90.0 xyz
      dof rx ry rz
   end
   begin
      id 17
      name RightArm
      direction -1.000000 0.000000 0.000000
      length 10.635614
      axis 0.0 0.0 90.0 xyz
      dof rx ry rz
   end
   begin
      id 18
      name RightForeArm
      direction -1.000000 0.000000 0.000000
      length 8.346755
      axis 0.0 0.0 90.0 xyz
      dof ry rz rx
   end
   begin
      id 19
      name RightHand
      direction 0.000000 0.000000 0.000000
      length 0.000000
      axis 0.0 0.0 90.0 xyz
      dof rx ry rz
   end
   begin
      id 20
      name RightHand_dum1
      direction 0.000000 0.000000 0.000000
      length 0.000000
      axis 0.0 0.0 90.0 xyz
   end
   begin
      id 21
      name RightHand_dum2
      direction -1.000000 0.000000 0.000000
      length 3.937000
      axis 0.0 0.0 90.0 xyz
   end
   begin
      id 22
      name RightHandThumb1
      direction 0.000000 0.000000 1.000000
      length 3.937000
      axis 0.0 0.0 90.0 xyz
      dof rx rz ry
   end
   begin
      id 23
      name LeftUpLeg
      direction 0.000000 -1.000000 0.000000
      length 15.713025
      axis 0.0 0.0 0.0 xyz
      dof rx ry rz
   end
   begin
      id 24
      name LeftLeg
      direction 0.000000 -1.000000 0.000000
      length 14.435119
      axis 0.0 0.0 0.0 xyz
      dof rx ry rz
   end
   begin
      id 25
      name LeftFoot
      direction 0.000000 -0.258819 0.965926
      length 4.938895
      axis 15.0 0.0 0.0 xyz
      dof rx ry rz
   end
   begin
      id 26
      name LeftToeBase
      direction 0.000000 0.000000 1.000000
      length 2.952750
      axis 0.0 0.0 0.0 xyz
      dof rx ry rz
   end
   begin
      id 27
      name RightUpLeg
      direction 0.000000 -1.000000 0.000000
      length 15.713025
      axis 0.0 0.0 0.0 xyz
      dof rx ry rz
   end
   begin
      id 28
      name RightLeg
      direction 0.000000 -1.000000 0.000000
      length 14.435119
      axis 0.0 0.0 0.0 xyz
      dof rx ry rz
   end
   begin
      id 29
      name RightFoot
      direction 0.000000 -0.258819 0.965926
      length 4.938895
      axis 15.0 0.0 0.0 xyz
      dof rx ry rz
   end
   begin
      id 30
      name RightToeBase
      direction 0.000000 0.000000 1.000000
      length 2.952750
      axis 0.0 0.0 0.0 xyz
      dof rx ry rz
   end
:hierarchy
   begin
      root Spine_dum LeftUpLeg_dum RightUpLeg_dum
      Spine_dum Spine
      LeftUpLeg_dum LeftUpLeg
      RightUpLeg_dum RightUpLeg
      Spine Spine_dum1 Spine_dum2 Spine_dum3
      Spine_dum1 Head
      Spine_dum2 LeftShoulder
      Spine_dum3 RightShoulder
      LeftShoulder LeftArm
      LeftArm LeftForeArm
      LeftForeArm LeftHand
      LeftHand LeftHand_dum1 LeftHand_dum2
      LeftHand_dum1 LeftHandThumb1
      RightShoulder RightArm
      RightArm RightForeArm
      RightForeArm RightHand
      RightHand RightHand_dum1 RightHand_dum2
      RightHand_dum1 RightHandThumb1
      LeftUpLeg LeftLeg
      LeftLeg LeftFoot
      LeftFoot LeftToeBase
      RightUpLeg RightLeg
      RightLeg RightFoot
      RightFoot RightToeBase
   end

# File created by Blade
# Date/Time:  Tue Sep 23 19:06:47 2014
# Frame Rate: 120.000 fps
#------------------------------------------------------
:FULLY-SPECIFIED
:DEGREES
488
root 2.303914 34.697013 -5.930680 50.572331 -9.339076 -47.183875
Spine -43.916232 29.422260 11.552204
Head -2.395803 -3.636427 22.434320
LeftShoulder -18.856477 14.908099 41.557230
LeftArm 68.317693 -78.058583 -14.627421
LeftForeArm 98.488977 -0.000000 10.865234
LeftHand -16.917532 -0.000000 62.459347
LeftHandThumb1 -26.253704 0.000000 33.147579
RightShoulder -9.438108 -5.865400 -19.130180
RightArm 114.703518 39.619212 149.991929
RightForeArm 47.464144 -0.000000 64.890440
RightHand -0.605456 -0.000000 23.881464
RightHandThumb1 -24.326973 -0.000000 -32.862282
LeftUpLeg -39.650934 31.612916 29.682228
LeftLeg 15.840409 -0.000000 -0.000000
LeftFoot -4.462226 32.945273 11.237385
LeftToeBase 2.256217 -0.000000 -0.000000
RightUpLeg -182.435973 -37.590886 55.283978
RightLeg -5.412891 -0.000000 0.000000
RightFoot 30.006349 -21.733839 13.254478
RightToeBase 33.915516 -0.000000 -0.000000
489
root 2.295541 34.698932 -5.937496 50.624315 -9.357469 -47.196105
Spine -43.931031 29.435137 11.548605
Head -2.373353 -3.640469 22.373411
LeftShoulder -18.842076 14.942071 41.533035
LeftArm 67.597953 -77.943833 -14.060741
LeftForeArm 98.218495 -0.000000 10.837207
LeftHand -16.678601 -0.000000 62.362290
LeftHandThumb1 -26.253704 0.000000 33.147579
RightShoulder -9.470850 -5.919666 -19.148992
RightArm 114.732981 39.605016 150.019750
RightForeArm 47.446735 0.000000 64.935737
RightHand -0.577426 -0.000000 23.746910
RightHandThumb1 -24.326973 -0.000000 -32.862282
LeftUpLeg -39.666098 31.681860 29.647258
LeftLeg 15.759145 -0.000000 -0.000000
LeftFoot -4.338290 32.951342 11.518341
LeftToeBase 2.418670 -0.000000 -0.000000
RightUpLeg -182.459483 -37.652272 55.337767
RightLeg -5.461415 -0.000000 0.000000
RightFoot 30.025239 -21.737201 13.090066
RightToeBase 33.814604 -0.000000 -0.000000
490
root 2.287165 34.700751 -5.946141 50.670151 -9.360409 -47.212051
Spine -43.935133 29.447833 11.557807
Head -2.366182 -3.643925 22.311351
LeftShoulder -18.824621 15.010548 41.481437
LeftArm 67.046071 -77.912706 -13.609209
LeftForeArm 98.359053 -0.000000 10.683921
LeftHand -16.797610 -0.000000 62.388543
LeftHandThumb1 -26.253704 0.000000 33.147579
RightShoulder -9.525441 -5.991216 -19.162621
RightArm 114.778043 39.547530 150.059420
RightForeArm 47.423357 -0.000000 64.941854
RightHand -0.584876 -0.000000 23.764157
RightHandThumb1 -24.326973 -0.000000 -32.862282
LeftUpLeg -39.697912 31.736491 29.636381
LeftLeg 15.717707 -0.000000 -0.000000
LeftFoot -4.226951 32.949060 11.789411
LeftToeBase 2.612441 -0.000000 -0.000000
RightUpLeg -182.471976 -37.697383 55.397471
RightLeg -5.515727 -0.000000 0.000000
RightFoot 30.025097 -21.780181 12.993963
RightToeBase 33.760389 -0.000000 -0.000000
491
root 2.277485 34.703325 -5.954822 50.719330 -9.338597 -47.238416
Spine -43.941310 29.448561 11.589246
Head -2.374959 -3.651156 22.258811
LeftShoulder -18.799751 15.039006 41.459617
LeftArm 66.492059 -77.849669 -13.215534
LeftForeArm 98.361291 -0.000000 10.605492
LeftHand -16.800024 -0.000000 62.386246
LeftHandThumb1 -26.253704 0.000000 33.147579
RightShoulder -9.560091 -6.013915 -19.186036
RightArm 114.800888 39.563720 150.084368
RightForeArm 47.443074 -0.000000 64.932158
RightHand -0.520959 -0.000000 23.742953
RightHandThumb1 -24.326973 -0.000000 -32.862282
LeftUpLeg -39.721489 31.742160 29.684015
LeftLeg 15.677182 -0.000000 -0.000000
LeftFoot -4.088670 32.995522 12.004012
LeftToeBase 2.684150 -0.000000 -0.000000
RightUpLeg -182.506204 -37.674361 55.491553
RightLeg -5.516986 -0.000000 0.000000
RightFoot 29.946901 -21.772754 13.018545
RightToeBase 33.747097 -0.000000 -0.000000
